# xmcd CD database file
#
# Track frame offsets:
#	150
#	20167
#	39590
#	59700
#	73125
#	91797
#	109235
#	140380
#	156750
#	176670
#	202302
#	228662
#
# Disc length: 3372 seconds
#
# Revision: 4
# Processed by: cddbd v1.5.2PL0 Copyright (c) Steve Scherf et al.
# Submitted via: CDex 1.72
#
DISCID=b50d2a0c
DTITLE=Muldaur, Maris (USA-99-Meet Me Where They Play The Blues-bls) - Meet Me Where They Play The Blues
DYEAR=1999
DGENRE=Blues
TTITLE0=Soothe Me
TTITLE1=I Wanna Be Loved
TTITLE2=Gee Baby, Ain't I Good To You (Duet with Charles Brown)
TTITLE3=It Ain't The Meat, It's The Motion
TTITLE4=We Can Let It Happen Tonight
TTITLE5=Meet Me Where They Play The Blues
TTITLE6=It Feels Like Rain
TTITLE7=Blues So Bad
TTITLE8=Misery And The Blues
TTITLE9=He Don't Have The Blues Anymore (for Johnny Adams And Charles Brown)
TTITLE10=All To Myself Alone
TTITLE11=The Promised Land
EXTD=YEAR: 1999
EXTT0=
EXTT1=
EXTT2=
EXTT3=
EXTT4=
EXTT5=
EXTT6=
EXTT7=
EXTT8=
EXTT9=
EXTT10=
EXTT11=
PLAYORDER=
